<?xml version="1.0" standalone="no"?>
<!DOCTYPE svg PUBLIC "-//W3C//DTD SVG 20010904//EN"
 "http://www.w3.org/TR/2001/REC-SVG-20010904/DTD/svg10.dtd">
<svg version="1.0" xmlns="http://www.w3.org/2000/svg"
 width="600.000000pt" height="600.000000pt" viewBox="0 0 600.000000 600.000000"
 preserveAspectRatio="xMidYMid meet">
<metadata>
Created by potrace 1.14, written by Peter Selinger 2001-2017
</metadata>
<g transform="translate(0.000000,600.000000) scale(0.100000,-0.100000)"
fill="#000000" stroke="none">
<path d="M1119 5946 c-2 -2 -24 -7 -49 -10 -80 -11 -103 -17 -194 -47 -334
-111 -595 -353 -733 -679 -34 -80 -72 -212 -80 -283 -10 -81 -10 -3784 0
-3858 15 -113 102 -363 143 -410 8 -8 14 -19 14 -22 0 -23 118 -173 192 -245
58 -57 207 -171 222 -172 5 0 17 -6 25 -13 45 -37 263 -118 386 -143 22 -4
891 -9 1930 -10 2074 -3 1955 -6 2149 57 358 116 660 419 770 774 55 176 51
33 51 2095 0 1042 -3 1920 -7 1950 -11 79 -44 194 -80 280 -138 325 -401 568
-734 679 -187 62 -81 59 -2130 60 -1029 0 -1873 -1 -1875 -3z"/>
</g>
</svg>
